<svg width="209" height="145" viewBox="0 0 209 145" fill="none" xmlns="http://www.w3.org/2000/svg">
<path fill-rule="evenodd" clip-rule="evenodd" d="M0 0H209V145H0V0ZM70.1484 66.625L69.5312 72.3594L71.0469 72.7344C71.3281 72.4688 71.5885 72.2917 71.8281 72.2031C72.0677 72.1094 72.3594 72.0625 72.7031 72.0625C73.3333 72.0625 73.8281 72.2656 74.1875 72.6719C74.5469 73.0729 74.7266 73.6198 74.7266 74.3125C74.7266 75.0312 74.5625 75.599 74.2344 76.0156C73.9115 76.4323 73.4583 76.6406 72.875 76.6406C72.3542 76.6406 71.9323 76.4948 71.6094 76.2031C71.2865 75.9062 71.0885 75.4818 71.0156 74.9297H69.1797C69.237 75.8984 69.6068 76.6797 70.2891 77.2734C70.9766 77.862 71.8411 78.1562 72.8828 78.1562C74.0443 78.1562 74.9583 77.8151 75.625 77.1328C76.2917 76.4453 76.625 75.5234 76.625 74.3672C76.625 73.1953 76.3229 72.263 75.7188 71.5703C75.1198 70.8776 74.2786 70.5312 73.1953 70.5312C72.5339 70.5312 71.9401 70.6823 71.4141 70.9844L71.7266 68.2656H76.2578V66.625H70.1484ZM84.6094 76.9141C85.224 76.0807 85.5312 74.8463 85.5312 73.2109V71.2422C85.5156 69.6537 85.2005 68.4609 84.5859 67.6641C83.9766 66.8672 83.0495 66.4688 81.8047 66.4688C80.5495 66.4688 79.6146 66.8776 79 67.6953C78.3906 68.513 78.0859 69.7396 78.0859 71.375V73.3438C78.1016 74.9323 78.4193 76.1328 79.0391 76.9453C79.6641 77.7526 80.5911 78.1562 81.8203 78.1562C83.0703 78.1562 84 77.7422 84.6094 76.9141ZM83.1953 68.7422C83.487 69.237 83.6328 70.0182 83.6328 71.0859V73.6562C83.6172 74.6823 83.4635 75.4375 83.1719 75.9219C82.8802 76.401 82.4297 76.6406 81.8203 76.6406C81.1849 76.6406 80.7188 76.3802 80.4219 75.8594C80.125 75.3385 79.9766 74.5469 79.9766 73.4844V70.9062C79.9922 69.9062 80.1458 69.1719 80.4375 68.7031C80.7292 68.2292 81.1849 67.9922 81.8047 67.9922C82.4401 67.9922 82.9036 68.2422 83.1953 68.7422ZM93.7031 76.9141C94.3177 76.0807 94.625 74.8463 94.625 73.2109V71.2422C94.6094 69.6537 94.2943 68.4609 93.6797 67.6641C93.0703 66.8672 92.1432 66.4688 90.8984 66.4688C89.6432 66.4688 88.7083 66.8776 88.0938 67.6953C87.4844 68.513 87.1797 69.7396 87.1797 71.375V73.3438C87.1953 74.9323 87.513 76.1328 88.1328 76.9453C88.7578 77.7526 89.6849 78.1562 90.9141 78.1562C92.1641 78.1562 93.0938 77.7422 93.7031 76.9141ZM92.2891 68.7422C92.5807 69.237 92.7266 70.0182 92.7266 71.0859V73.6562C92.7109 74.6823 92.5573 75.4375 92.2656 75.9219C91.974 76.401 91.5234 76.6406 90.9141 76.6406C90.2786 76.6406 89.8125 76.3802 89.5156 75.8594C89.2188 75.3385 89.0703 74.5469 89.0703 73.4844V70.9062C89.0859 69.9062 89.2396 69.1719 89.5312 68.7031C89.8229 68.2292 90.2786 67.9922 90.8984 67.9922C91.5339 67.9922 91.9974 68.2422 92.2891 68.7422ZM106.898 66.625L104.508 70.7344L102.117 66.625H99.8359L103.281 72.2656L99.7578 78H102.055L104.508 73.8281L106.953 78H109.258L105.742 72.2656L109.18 66.625H106.898ZM117.75 71.4453H116.594V72.9453H117.711C118.409 72.9453 118.935 73.1068 119.289 73.4297C119.643 73.7526 119.82 74.2135 119.82 74.8125C119.82 75.4062 119.651 75.8594 119.312 76.1719C118.974 76.4844 118.51 76.6406 117.922 76.6406C117.354 76.6406 116.901 76.4844 116.562 76.1719C116.229 75.8594 116.062 75.4531 116.062 74.9531H114.164C114.164 75.9219 114.513 76.6979 115.211 77.2812C115.909 77.8646 116.805 78.1562 117.898 78.1562C119.039 78.1562 119.958 77.8542 120.656 77.25C121.359 76.6458 121.711 75.8333 121.711 74.8125C121.711 74.1771 121.547 73.6302 121.219 73.1719C120.896 72.7135 120.422 72.3776 119.797 72.1641C120.312 71.9349 120.732 71.5963 121.055 71.1484C121.383 70.6953 121.547 70.2135 121.547 69.7031C121.547 68.6875 121.221 67.8958 120.57 67.3281C119.924 66.7552 119.034 66.4688 117.898 66.4688C117.211 66.4688 116.589 66.6042 116.031 66.875C115.479 67.1406 115.047 67.513 114.734 67.9922C114.427 68.4713 114.273 69.0026 114.273 69.5859H116.172C116.172 69.112 116.336 68.7292 116.664 68.4375C116.992 68.1406 117.411 67.9922 117.922 67.9922C118.505 67.9922 118.938 68.1432 119.219 68.4453C119.505 68.7422 119.648 69.1615 119.648 69.7031C119.648 70.2656 119.477 70.6953 119.133 70.9922C118.794 71.2891 118.333 71.4401 117.75 71.4453ZM123.492 78H131.141V76.4844H125.859L128.641 73.5078C129.37 72.7162 129.893 72.0104 130.211 71.3906C130.534 70.7656 130.695 70.1693 130.695 69.6016C130.695 68.6224 130.375 67.8568 129.734 67.3047C129.099 66.7474 128.229 66.4688 127.125 66.4688C126.359 66.4688 125.682 66.6224 125.094 66.9297C124.51 67.237 124.06 67.6693 123.742 68.2266C123.43 68.7787 123.273 69.401 123.273 70.0938H125.172C125.172 69.4427 125.341 68.9297 125.68 68.5547C126.018 68.1797 126.495 67.9922 127.109 67.9922C127.625 67.9922 128.034 68.1588 128.336 68.4922C128.643 68.8255 128.797 69.263 128.797 69.8047C128.797 70.2162 128.68 70.6276 128.445 71.0391C128.216 71.4453 127.828 71.9531 127.281 72.5625L123.492 76.6953V78ZM133.711 66.625L133.094 72.3594L134.609 72.7344C134.891 72.4688 135.151 72.2917 135.391 72.2031C135.63 72.1094 135.922 72.0625 136.266 72.0625C136.896 72.0625 137.391 72.2656 137.75 72.6719C138.109 73.0729 138.289 73.6198 138.289 74.3125C138.289 75.0312 138.125 75.599 137.797 76.0156C137.474 76.4323 137.021 76.6406 136.438 76.6406C135.917 76.6406 135.495 76.4948 135.172 76.2031C134.849 75.9062 134.651 75.4818 134.578 74.9297H132.742C132.799 75.8984 133.169 76.6797 133.852 77.2734C134.539 77.862 135.404 78.1562 136.445 78.1562C137.607 78.1562 138.521 77.8151 139.188 77.1328C139.854 76.4453 140.188 75.5234 140.188 74.3672C140.188 73.1953 139.885 72.263 139.281 71.5703C138.682 70.8776 137.841 70.5312 136.758 70.5312C136.096 70.5312 135.503 70.6823 134.977 70.9844L135.289 68.2656H139.82V66.625H133.711Z" fill="#C0B9B9"/>
</svg>
